<svg xmlns="http://www.w3.org/2000/svg" width="160" height="144" fill="none"><g clip-path="url(#a)"><circle cx="80" cy="72" r="66" stroke="#fff" opacity=".2"/><circle cx="80" cy="72" r="34" stroke="#fff" opacity=".1"/><rect width="132" height="132" x="14" y="6" stroke="#fff" opacity=".2" rx="20"/><rect width="68" height="68" x="46" y="38" stroke="#fff" opacity=".1" rx="16"/><rect width="102" height="102" x="29" y="21" stroke="#fff" opacity=".2" rx="16"/><path stroke="#fff" d="M14 71h132M80 5v132M139.332 11.668l-120 120M20.668 11.668l120 120" opacity=".2"/><g clip-path="url(#b)"><path fill="#1ABCFE" d="M80.64 72.956a7.986 7.986 0 1 1 15.973 0 7.986 7.986 0 0 1-15.972 0Z"/><path fill="#0ACF83" d="M64.666 88.933a7.986 7.986 0 0 1 7.986-7.986h7.986v7.986a7.986 7.986 0 0 1-15.972 0Z"/><path fill="#FF7262" d="M80.64 49v15.972h7.987a7.986 7.986 0 1 0 0-15.972H80.64Z"/><path fill="#F24E1E" d="M64.666 56.986a7.986 7.986 0 0 0 7.986 7.986h7.986V49h-7.986a7.986 7.986 0 0 0-7.986 7.986Z"/><path fill="#A259FF" d="M64.666 72.956a7.986 7.986 0 0 0 7.986 7.986h7.986V64.97h-7.986a7.986 7.986 0 0 0-7.986 7.986Z"/></g></g><defs><clipPath id="a"><path fill="#fff" d="M0 0h132v133H0z" transform="translate(14 5)"/></clipPath><clipPath id="b"><path fill="#fff" d="M0 0h31.944v47.917H0z" transform="translate(64.666 49)"/></clipPath></defs></svg>